<?xml version="1.0" standalone="no"?>
<!DOCTYPE svg PUBLIC "-//W3C//DTD SVG 20010904//EN"
 "http://www.w3.org/TR/2001/REC-SVG-20010904/DTD/svg10.dtd">
<svg version="1.0" xmlns="http://www.w3.org/2000/svg"
 width="400.000000pt" height="400.000000pt" viewBox="0 0 400.000000 400.000000"
 preserveAspectRatio="xMidYMid meet">
<metadata>
Created by potrace 1.14, written by Peter Selinger 2001-2017
</metadata>
<g transform="translate(0.000000,400.000000) scale(0.100000,-0.100000)"
fill="#000000" stroke="none">
<path d="M330 2393 l0 -1358 472 -260 c259 -143 496 -274 527 -291 31 -17 76
-42 101 -56 53 -29 123 -68 239 -132 46 -25 86 -44 90 -42 3 2 6 327 6 722
l-1 718 -229 128 c-127 70 -234 127 -240 128 -7 0 -10 -154 -9 -445 1 -445 0
-465 -31 -436 -6 5 -44 26 -85 48 -135 72 -355 196 -360 204 -7 11 -5 1608 3
1615 3 4 32 -8 64 -26 32 -18 83 -47 113 -63 30 -17 111 -62 180 -100 69 -38
154 -86 190 -105 36 -19 99 -54 140 -77 41 -23 107 -59 145 -80 64 -35 124
-68 293 -162 l62 -35 223 123 c122 68 240 133 262 145 22 11 56 30 75 41 19
11 152 84 295 163 143 78 277 153 298 166 33 22 37 22 38 7 4 -68 3 -1607 -1
-1613 -6 -9 -459 -260 -469 -260 -4 0 -7 202 -7 449 l1 450 -50 -29 c-27 -15
-126 -69 -220 -120 -93 -51 -179 -99 -190 -106 -20 -13 -20 -24 -20 -728 1
-393 3 -718 6 -721 6 -5 73 30 474 253 105 58 210 116 235 130 25 13 68 37 95
52 28 15 113 62 190 105 77 43 158 87 180 99 22 12 88 49 148 82 l107 59 0
1357 c0 747 -2 1358 -5 1358 -4 0 -265 -143 -725 -397 -143 -79 -197 -109
-222 -122 -25 -13 -31 -11 -84 19 -31 17 -80 44 -108 60 -28 15 -158 86 -288
159 l-238 132 -237 -133 c-311 -173 -370 -205 -418 -229 l-41 -21 -179 99
c-99 55 -205 113 -235 130 -30 16 -75 41 -100 55 -25 14 -70 39 -100 55 -30
17 -121 67 -202 112 -81 44 -149 81 -152 81 -3 0 -6 -611 -6 -1357z m1764 603
c71 -39 93 -56 84 -63 -7 -6 -50 -30 -96 -54 l-83 -44 -62 34 c-34 18 -77 43
-95 54 l-33 20 93 52 c51 29 93 53 94 54 0 1 44 -23 98 -53z"/>
</g>
</svg>
